<?xml version="1.0" encoding="UTF-8"?>
<svg width="18px" height="13px" viewBox="0 0 18 13" version="1.1" xmlns="http://www.w3.org/2000/svg" xmlns:xlink="http://www.w3.org/1999/xlink">
    <!-- Generator: Sketch 51.3 (57544) - http://www.bohemiancoding.com/sketch -->
    <title>cloud-computing</title>
    <desc>Created with Sketch.</desc>
    <defs></defs>
    <g id="DESIGN" stroke="none" stroke-width="1" fill="none" fill-rule="evenodd">
        <g id="personal-info" transform="translate(-58.000000, -508.000000)" fill="#B7A198" fill-rule="nonzero">
            <g id="Group" transform="translate(40.000000, 158.000000)">
                <g id="cloud-computing" transform="translate(18.000000, 350.000000)">
                    <path d="M14.528007,4.57896167 C14.2819024,2.02076655 12.152007,0.0136097561 9.53040418,0.0136097561 C7.50085714,0.0136097561 5.76401394,1.21785366 4.96335889,2.94579094 C4.72170732,2.86896167 4.47108711,2.81684321 4.20478746,2.81684321 C2.81157491,2.81684321 1.68190244,3.94708014 1.68190244,5.33972822 C1.68190244,5.6166899 1.73740767,5.87853659 1.81981882,6.12689895 C0.735554007,6.75878049 0,7.91874564 0,9.26316376 C0,11.2759024 1.63147735,12.9073798 3.64421603,12.9073798 L3.64421603,12.9085087 L13.7358188,12.9085087 L13.7358188,12.9073798 C16.0585714,12.9073798 17.9395401,11.0252822 17.9395401,8.70252962 C17.9389756,6.65278746 16.4706272,4.95012544 14.528007,4.57896167 Z M11.6429268,8.21195122 L9.52312892,10.3014564 C9.09533101,10.7303206 8.83185366,10.7163345 8.41641115,10.3014564 L6.29661324,8.21195122 C5.99274564,7.71579094 6.24110801,7.30988153 6.84997213,7.30988153 L7.84850174,7.30988153 L7.84850174,5.06057143 C7.84850174,4.75055749 8.09968641,4.49880836 8.40913589,4.49880836 L9.53040418,4.49880836 C9.84041812,4.49880836 10.0910383,4.75055749 10.0910383,5.06057143 L10.0910383,7.30988153 L11.088439,7.30988153 C11.6973031,7.30988153 11.9473589,7.71579094 11.6429268,8.21195122 Z" id="Shape"></path>
                </g>
            </g>
        </g>
    </g>
</svg>