<?xml version="1.0" encoding="UTF-8"?>
<svg width="21px" height="9px" viewBox="0 0 21 9" version="1.1" xmlns="http://www.w3.org/2000/svg" xmlns:xlink="http://www.w3.org/1999/xlink">
    <!-- Generator: Sketch 51.3 (57544) - http://www.bohemiancoding.com/sketch -->
    <title>Group 3</title>
    <desc>Created with Sketch.</desc>
    <defs></defs>
    <g id="DESIGN" stroke="none" stroke-width="1" fill="none" fill-rule="evenodd">
        <g id="registration-active" transform="translate(-304.000000, -233.000000)" fill="#FFFFFF" fill-rule="nonzero">
            <g id="Group-3" transform="translate(304.000000, 233.000000)">
                <path d="M11.2145789,5.13773002 L11.2145789,7.5 C11.2145789,8.05228475 10.7668636,8.5 10.2145789,8.5 C9.66229413,8.5 9.21457888,8.05228475 9.21457888,7.5 L9.21457888,5.15706102 C8.44099028,5.11435889 7.70407344,5.01288572 7.01511916,4.85457088 L5.83002569,6.82972665 C5.54587753,7.30330692 4.93161728,7.45687198 4.45803701,7.17272383 C3.98445675,6.88857567 3.83089168,6.27431541 4.11503984,5.80073514 L5.0764224,4.19843087 C4.33863228,3.85266363 3.69703785,3.41805919 3.17489149,2.89859091 L1.50037294,3.86590633 C1.02214608,4.14216258 0.410516673,3.97843305 0.134260424,3.50020619 C-0.141995825,3.02197933 0.0217337055,2.41034992 0.499960566,2.13409367 L2.08473787,1.21861888 C2.02676441,0.803166046 2.23625235,0.379445858 2.63303518,0.183714789 C3.12833488,-0.060614184 3.72792239,0.142837793 3.97225137,0.638137498 C4.74290417,2.20039227 7.03812368,3.18023935 10.0665439,3.18023935 C13.1359285,3.18023935 15.4468545,2.17505604 16.1894,0.578521851 C16.4223081,0.0777501884 17.0170731,-0.139396127 17.5178447,0.093511981 C17.8832935,0.263481632 18.0976931,0.626163994 18.0963604,1.00439222 C18.2345966,1.01766339 18.3722708,1.06009322 18.5003729,1.13409367 L20.2314717,2.13409367 C20.7096986,2.41034992 20.8734281,3.02197933 20.5971719,3.50020619 C20.3209156,3.97843305 19.7092862,4.14216258 19.2310594,3.86590633 L17.4999606,2.86590633 C17.3880031,2.80123211 17.2932824,2.718177 17.2174085,2.62275582 C16.7062453,3.20665849 16.0550722,3.6952822 15.2918649,4.08373768 L16.3220634,5.80073514 C16.6062115,6.27431541 16.4526465,6.88857567 15.9790662,7.17272383 C15.5054859,7.45687198 14.8912257,7.30330692 14.6070775,6.82972665 L13.3833951,4.79025596 C12.7063175,4.96342819 11.9796182,5.0799101 11.2145789,5.13773002 Z" id="Combined-Shape"></path>
            </g>
        </g>
    </g>
</svg>